Patient4_TMGait_0pt2_02_left_04_EMG.mot
version=1
nRows=16
nColumns=33
inDegrees=no
endheader
time	1LAddLong	2LGlutMax	3LGlutMed	4LIliopsoas	5LSemiMemb	6LBicFemLong	7LRecFem	8LVastMed	9LVastLat	10LGasMed	11LTibAnt	12lTibPost	13LPeroneusLong	14LSol	15LExtDigLong	16LFlexDigLong	17RAddLong	18RGlutMax	19RGlutMed	20RIliopsoas	21RSemiMemb	22RBicFemLong	23RRecFem	24RVastMed	25RVastLat	26RGasMed	27RTibAnt	28RTibPost	29RPeroneusLong	30RSol	31RExtDigLong	32RFlexDigLong
11.22	-0.004272	0.011749	-0.019531	0.016632	0.010681	0.019226	0.002441	0.01709	0.015259	-0.019684	0.093536	-0.050507	0.01358	0	-0.055847	0.003815	-0.031891	0.019531	0.17761	0.12009	-0.024719	0.3685	-0.48798	-0.27344	0.23071	-0.006561	-0.040283	0.094299	-0.67337	0.24765	-0.006714	-0.011444
11.221	-0.045929	0.031891	-0.036621	0.015259	0.005493	0.019073	0.004425	-0.009613	0.001984	-0.013275	0.18646	-0.047302	0.019531	0.013885	0.007019	0.002594	-0.024109	0.094452	0.64453	0.080872	-0.015411	0.15076	-0.40985	0.15228	0.2742	-0.003204	0.029297	0.02182	0.12024	1.0527	0.000763	-0.014343
11.222	0.050507	0.029907	-0.055237	0.003357	-0.014496	0.029602	0.009003	0.004883	0.004578	-0.017548	-0.1152	-0.044556	0.007782	0.007782	-0.031891	0.008087	0.041809	0.09613	0.86655	-0.016937	0.069122	0.058746	-0.17777	0.30411	0.30487	0.003204	-0.043182	0.008392	1.2538	0.59845	-0.00351	-0.005035
11.223	0.007935	0.003204	0.003967	-0.002747	-0.005493	0.023956	0.00473	0.010986	-0.007629	-0.033875	-0.20279	-0.045624	0.020447	-0.012817	-0.17303	0.007629	0.058136	0.12863	0.17517	-0.037231	0.024414	-0.082092	-0.31677	0.22705	0.23193	0.005035	0.072937	0.003815	0.11047	0.1326	-0.006866	0.006104
11.224	0.016937	-0.000458	0.040436	0.016479	0.01236	0.023651	0.014038	0.005188	-0.014191	-0.026245	-0.13748	-0.046082	0.032501	-0.03418	-0.15808	0.016174	0.066528	0.14801	-0.39398	-0.056305	-0.054779	-0.27634	-0.2214	-0.052338	0.076141	0.003967	0.12558	-0.010071	-1.1089	0.011597	-0.00412	0.002289
11.225	0.010223	0.005188	0.025787	0.018616	0.017853	0.010376	0.037842	0.001831	-0.014648	-0.020447	-0.056305	-0.047302	0.056	-0.023193	-0.088501	0.005798	0.051575	0.10071	-0.19821	0.013123	-0.065155	-0.31418	-0.066986	0.031128	-0.094299	0.00061	0.082703	-0.021667	-0.58563	-0.040283	-0.004425	-0.001373
11.226	0.020752	0.001373	0.02594	-0.000458	0.01236	0.031128	0.010529	0.001526	-0.026245	-0.016785	-0.005951	-0.044403	0.056305	-0.047913	0.007629	0.001526	0.032959	0.062103	-0.068054	0.06958	-0.031738	-0.29159	-0.0737	0.091095	-0.22156	0.00412	-0.002594	-0.025024	-0.2211	-0.048828	-0.003967	-0.00946
11.227	0.016327	0.009613	0.023651	-0.006104	0.007935	0.037994	0.01297	0.000305	-0.03006	-0.027313	0.021057	-0.036011	0.066223	-0.030212	0.062714	0.001831	0.012817	-0.007782	-0.093689	0.035858	-0.056	-0.28214	-0.061188	0.083008	-0.26962	-0.003052	-0.14557	-0.018768	1.23	-0.034485	-0.002289	-0.007935
11.228	0.021362	-0.000916	-0.0177	-0.005493	0.007629	0.03418	0.012665	0.00473	-0.026245	-0.032349	0.090179	-0.036316	0.071106	-0.011597	0.19547	0.005646	0.040741	-0.1564	-0.75699	-0.010986	-0.12573	-0.13153	-0.00061	0.17105	-0.25696	0	-0.10208	-0.023041	-0.28015	-0.004578	-0.00412	-0.005035
11.229	0.017853	0.023041	0.009918	-0.00412	0.005951	0.033722	0.019836	0.004883	-0.030518	-0.044403	0.11795	-0.032959	0.033722	-0.051575	0.12955	0.009613	0.054626	-0.25955	-0.5574	-0.009766	-0.13458	0.1506	0.049591	0.20294	-0.1767	-0.002441	0.12207	-0.03006	-0.71152	0.068665	-0.002136	-0.012512
11.23	0.005646	0.010986	0.00824	0.002136	0.010376	0.033722	0.010223	-0.00473	-0.033112	-0.033875	0.13748	-0.046082	0.000916	-0.080566	0.11902	0.008087	0.007019	-0.3746	-0.48004	-0.10269	-0.0914	0.12665	0.010071	0.22064	-0.12451	-0.002899	0.08728	-0.02243	0.51193	0.079956	-0.003052	-0.008698
11.231	0.014801	0.002289	0.006866	-0.013275	0.000305	0.046844	0.009308	0.007172	-0.027008	-0.032196	-0.021515	-0.050812	0.04364	-0.075989	0.064545	-0.006866	0.027161	-0.4538	-0.21118	-0.057678	-0.029907	0.24368	0.13367	0.14084	-0.10666	0.014648	0.044098	-0.029602	0.33554	0.030518	-0.002289	-0.012817
11.232	0.015106	0.01297	0.009155	0.006104	0.005646	0.045776	-0.005798	0.000763	-0.025482	-0.024261	-0.039825	-0.047455	0.035553	-0.048218	0.051575	0.005188	0.00473	-0.37079	-0.33447	0.037689	0.001678	0.44678	0.18402	0.11032	-0.10635	0.014954	-0.003052	-0.024567	0.003815	-0.016785	0.001678	-0.01297
11.233	0.015869	0.029907	0.000458	0.010986	0.005188	0.039063	0.006256	0.009003	-0.019226	-0.028076	0.004272	-0.046997	0.047455	-0.068207	0.070343	0.000305	-0.015717	-0.32211	-0.083008	0.1799	-0.010071	0.20905	0.27466	0.014648	-0.11383	0.018768	0.017395	-0.017242	-0.32059	-0.029144	-0.003052	-0.010529
11.234	0.010986	0.005188	-0.017242	0.014801	-0.000458	0.040131	0.011444	0.001526	-0.023804	-0.045471	-0.029602	-0.033875	0.039673	-0.066528	-0.012665	0.00473	-0.057678	-0.25955	-0.020142	0.10956	-0.022583	0.10666	0.18097	-0.12466	-0.025024	-0.000153	0.031891	-0.016022	0.27329	-0.009308	-0.002136	-0.018311
11.235	0.009308	-0.007935	-0.047455	0.004425	-0.003357	0.034485	0.000458	0.003204	-0.034485	-0.033417	-0.013428	-0.031433	0.036011	-0.010071	-0.005035	0.002747	-0.063019	-0.2449	0.25497	-0.086823	0.01236	0.20386	0.14938	-0.33447	0.008087	-0.05188	0.038757	-0.017548	0.4512	0.045319	-0.002899	-0.014648
